<svg width="140" height="48" viewBox="0 0 140 48" fill="none" xmlns="http://www.w3.org/2000/svg">
<path d="M0 47.8392H70H140V0H0V47.8392ZM138.409 34.4404H1.59091V1.60408H138.409V34.4404Z" fill="#28303D"/>
<path d="M8.32888 27.5524H10.9492V18.9658H21.3369V27.5524H23.9572V8.39781H21.3369V16.6069H10.9492V8.39781H8.32888V27.5524Z" fill="#28303D"/>
<path d="M28.3556 27.5524H43.1417V25.2878H30.9759V18.9658L36.385 18.947L41.7848 18.9187L41.8409 16.6069H30.9759L30.9947 13.6535L31.0227 10.7096L37.0401 10.6813L43.0481 10.6624V8.39781H28.3556V27.5524Z" fill="#28303D"/>
<path d="M48.6163 17.8996C46.6136 23.1176 44.9572 27.4297 44.9385 27.4674C44.9198 27.5146 45.5094 27.5524 46.258 27.5524H47.6056L48.3168 25.5897C48.7099 24.5141 49.1217 23.3723 49.2433 23.0421L49.4492 22.4571L53.885 22.4759L58.3209 22.5042L59.2567 25.0236L60.1925 27.5524H62.9719L62.8596 27.2315C62.7941 27.0617 61.1471 22.7496 59.1912 17.6637L55.635 8.39781H52.266L48.6163 17.8996ZM55.6725 15.3803C56.6083 17.8902 57.3663 20.0038 57.3663 20.0698C57.3663 20.1642 56.6364 20.1925 53.8476 20.1925C50.5348 20.1925 50.3289 20.1831 50.3757 20.0226C50.4131 19.8905 53.3984 11.7192 53.7166 10.9077C53.7727 10.7379 53.8476 10.6624 53.9037 10.719C53.9505 10.7662 54.746 12.8609 55.6725 15.3803Z" fill="#28303D"/>
<path d="M65.4144 27.5524H77.7674V25.2878H68.0348V8.39781H65.4144V27.5524Z" fill="#28303D"/>
<path d="M77.2059 10.6624L80.4626 10.6813L83.7099 10.7096L83.738 19.1262L83.7567 27.5524H86.377V10.6624H92.9278V8.39781H77.2059V10.6624Z" fill="#28303D"/>
<path d="M95.7353 27.5524H98.3556V18.9658H108.743V27.5524H111.364V8.39781H108.743V16.6069H98.3556V8.39781H95.7353V27.5524Z" fill="#28303D"/>
<path d="M114.078 8.43555C114.078 8.45443 115.762 10.9926 117.821 14.0687L121.564 19.6735V27.5524H124.184V23.561L124.194 19.5792L127.881 14.0404C129.912 10.9926 131.578 8.4733 131.578 8.44499C131.578 8.41668 130.913 8.39781 130.108 8.39781H128.63L125.822 12.7854C124.278 15.201 122.977 17.173 122.921 17.173C122.874 17.1636 121.564 15.1915 120.02 12.7854L117.213 8.39781H115.65C114.779 8.39781 114.078 8.41668 114.078 8.43555Z" fill="#28303D"/>
</svg>
