<svg width="60" height="69" viewBox="0 0 60 69" fill="none" xmlns="http://www.w3.org/2000/svg">
<path d="M59.6392 14.6327L45.2394 0.356944C45.0234 0.124962 44.7174 -0.00292614 44.3993 5.08304e-05H9.43192C6.87896 0.0119473 4.81199 2.06109 4.80001 4.59204V27.3616C4.80001 28.0189 5.33701 28.5513 6 28.5513C6.66299 28.5513 7.19998 28.0189 7.19998 27.3616V4.59204C7.19998 3.36966 8.19899 2.37934 9.43192 2.37934H43.1997V15.4658C43.1997 15.7811 43.3257 16.0844 43.5507 16.3075C43.7757 16.5306 44.0817 16.6555 44.3997 16.6555H57.6V64.408C57.6 65.6304 56.601 66.6207 55.368 66.6207H9.43294C8.19993 66.6207 7.201 65.6303 7.201 64.408V58.2933C7.201 57.636 6.66401 57.1036 6.00102 57.1036C5.33803 57.1036 4.80103 57.636 4.80103 58.2933V64.408C4.81303 66.939 6.87998 68.9881 9.43294 69H55.368C57.921 68.9881 59.988 66.939 59.9999 64.408V15.4662C60.0029 15.151 59.874 14.8476 59.6399 14.6334L59.6392 14.6327ZM45.5996 4.06864L55.8952 14.2756H45.5996V4.06864Z" fill="#77C043"/>
<path d="M24.383 38.5687H22.271V47.0626H24.671C25.931 47.1459 27.179 46.7652 28.175 45.9919C29.015 45.1592 29.453 44.0052 29.375 42.8275C29.303 39.9724 27.599 38.5687 24.383 38.5687Z" fill="#77C043"/>
<path d="M12.1674 38.5207H10.0074V43.4934H12.4073C13.2653 43.6035 14.1323 43.3626 14.8073 42.8272C15.3263 42.3097 15.6113 41.6048 15.5993 40.8762C15.6623 40.1684 15.3563 39.4754 14.7833 39.0442C13.9793 38.6278 13.0703 38.4464 12.1674 38.5207Z" fill="#77C043"/>
<path d="M50.3995 50.8694V34.7854C50.4055 33.7623 49.9975 32.7779 49.2685 32.0523C48.5365 31.3296 47.5435 30.9251 46.5115 30.931H3.88802C2.85599 30.9251 1.86306 31.3295 1.13109 32.0523C0.402093 32.778 -0.00592509 33.7624 6.52436e-05 34.7854V50.8694C-0.0059343 51.8926 0.402062 52.877 1.13109 53.6026C1.86307 54.3253 2.85607 54.7298 3.88802 54.7239H46.5115C47.5436 54.7298 48.5365 54.3254 49.2685 53.6026C49.9975 52.8769 50.4055 51.8925 50.3995 50.8694ZM16.3199 44.3502C15.1139 45.1353 13.6799 45.5041 12.2399 45.3971H10.008V49.0374H7.89601V36.6178H12.192C13.662 36.487 15.132 36.8736 16.3439 37.7123C17.2829 38.56 17.7689 39.7912 17.6639 41.0433C17.7629 42.2924 17.2679 43.5174 16.3199 44.3502ZM29.6875 47.3481C28.1846 48.5794 26.2555 49.1861 24.3116 49.0374H20.1597V36.6179H24.4557C26.3247 36.496 28.1696 37.0819 29.6157 38.2596C30.8606 39.4195 31.5296 41.0642 31.4396 42.7564C31.5236 44.4606 30.8875 46.1228 29.6875 47.3481ZM42.4792 38.5687H36.2632V41.9949H41.8072V44.0172H36.2632V49.1328H34.1513V36.6173H42.5032L42.4792 38.5687Z" fill="#77C043"/>
</svg>
