<svg width="40" height="40" viewBox="0 0 40 40" fill="none" xmlns="http://www.w3.org/2000/svg">
<circle cx="20" cy="20" r="20" fill="#28303D"/>
<path d="M23.8709 24.0837C23.7947 24.0075 23.6607 23.9996 23.5688 24.0732C23.5688 24.0732 23.4952 24.1336 23.3744 24.2256C21.7456 25.4471 19.7228 26.1695 17.5293 26.1695C12.1439 26.1695 7.77783 21.8034 7.77783 16.4181C7.77783 11.0327 12.1439 6.66664 17.5293 6.66664C22.9146 6.66664 27.2807 11.0327 27.2807 16.4181C27.2807 18.6247 26.5478 20.6607 25.3105 22.2947C25.229 22.405 25.1844 22.4602 25.1844 22.4602C25.1134 22.5469 25.1187 22.6809 25.1949 22.7597L25.8674 23.4296C25.9436 23.5084 26.0907 23.5504 26.201 23.5241C26.201 23.5241 26.2483 23.5084 26.3718 23.4926C26.9629 23.4243 27.5802 23.6161 28.0347 24.0706L32.7423 28.7782C33.5304 29.5663 33.5304 30.843 32.7423 31.6311C31.9542 32.4192 30.6775 32.4192 29.8894 31.6311L25.1818 26.9235C24.7194 26.4611 24.5276 25.828 24.6091 25.2265C24.6248 25.1135 24.6354 25.0873 24.6354 25.0873C24.6616 24.9822 24.6196 24.8324 24.5408 24.7562L23.8709 24.0837ZM17.5293 24.152C21.8008 24.152 25.2632 20.6896 25.2632 16.4181C25.2632 12.1466 21.8008 8.6842 17.5293 8.6842C13.2577 8.6842 9.79536 12.1466 9.79536 16.4181C9.79536 20.6896 13.2577 24.152 17.5293 24.152Z" fill="white"/>
</svg>
