<svg width="46" height="23" viewBox="0 0 46 23" fill="none" xmlns="http://www.w3.org/2000/svg">
<g filter="url(#filter0_d_1_49)">
<path d="M9.16256 0.820346C7.98769 0.80407 6.23548 0.659211 4.91395 1.23702C4.34428 1.48279 4.11426 1.94828 4 2.50003C4 3.40338 4.37515 4.2351 4.87691 5.00007C5.29529 5.63808 5.82173 6.20775 6.38369 6.66676C6.44544 9.30513 7.08457 11.4081 8.49566 12.8385C9.98082 14.3441 12.1869 15 15.0662 15C16.7413 15 18.1245 14.3148 19.1666 13.3333C20.2087 12.3518 20.9435 11.0856 21.5132 9.83068C22.0412 8.64904 22.4596 7.38273 22.8471 6.24988H23.0941C23.551 7.50965 23.9679 8.80525 24.428 9.83068C24.9976 11.0856 25.7325 12.3519 26.7746 13.3333C27.8167 14.3147 29.1999 15 30.875 15C33.7542 15 35.9603 14.3441 37.4455 12.8385C38.8566 11.4078 39.4957 9.30492 39.5575 6.66676C40.1194 6.20775 40.6459 5.63808 41.0643 5.00007C41.566 4.2351 41.9412 3.40338 41.9412 2.50003C41.881 1.83923 41.5135 1.50881 41.0272 1.23702C39.6671 0.729178 38.0986 0.773137 36.7786 0.820346C34.8473 0.00979323 32.6474 0 30.8748 0C28.4047 0 26.3978 0.937513 24.5758 2.08336H21.3647C19.5429 0.937513 17.536 0 15.0656 0C12.7715 0 10.8803 0.0862651 9.16185 0.820346H9.16256ZM15.0663 1.66669C17.6893 1.66669 19.7363 2.92808 21.8594 4.4011C21.2048 5.9685 20.6984 7.73936 20.0809 9.1145C19.5637 10.2555 18.9153 11.3329 18.1048 12.0963C17.2943 12.8596 16.3556 13.3333 15.0665 13.3333C12.4127 13.3333 10.6666 12.7262 9.58287 11.6275C8.49918 10.5289 7.95259 8.82966 7.95259 6.24996C7.95259 3.7548 8.69363 2.83521 9.94102 2.26553C11.1884 1.69586 13.0902 1.66669 15.0663 1.66669ZM30.8751 1.66669C32.8512 1.66669 34.7532 1.69599 36.0007 2.26566C37.2483 2.83533 37.9892 3.75493 37.9892 6.25009C37.9892 8.82987 37.4427 10.5293 36.3589 11.6277C35.2751 12.726 33.529 13.3334 30.8752 13.3334C29.5861 13.3334 28.6475 12.8598 27.837 12.0964C27.0264 11.333 26.3781 10.2556 25.8609 9.11463C25.1106 7.53256 24.7431 5.89354 24.0824 4.40123C26.2051 2.92821 28.2521 1.66669 30.8751 1.66669Z" fill="black"/>
</g>
<defs>
<filter id="filter0_d_1_49" x="0" y="0" width="45.9412" height="23" filterUnits="userSpaceOnUse" color-interpolation-filters="sRGB">
<feFlood flood-opacity="0" result="BackgroundImageFix"/>
<feColorMatrix in="SourceAlpha" type="matrix" values="0 0 0 0 0 0 0 0 0 0 0 0 0 0 0 0 0 0 127 0" result="hardAlpha"/>
<feOffset dy="4"/>
<feGaussianBlur stdDeviation="2"/>
<feComposite in2="hardAlpha" operator="out"/>
<feColorMatrix type="matrix" values="0 0 0 0 0 0 0 0 0 0 0 0 0 0 0 0 0 0 0.25 0"/>
<feBlend mode="normal" in2="BackgroundImageFix" result="effect1_dropShadow_1_49"/>
<feBlend mode="normal" in="SourceGraphic" in2="effect1_dropShadow_1_49" result="shape"/>
</filter>
</defs>
</svg>
